<svg width="989" height="1063" viewBox="0 0 989 1063" fill="none" xmlns="http://www.w3.org/2000/svg">
<path d="M333.015 318.162L502.504 318.321L502.431 323.527L502.437 356.058C502.437 370.438 502.143 386.469 502.645 400.719C504.023 418.203 505.841 430.12 510.47 447.228C520.579 480.572 533.113 506.331 554.422 533.93C564.776 546.323 573.832 555.006 584.082 566.603L621.249 605.472L650.29 635.653C663.987 650.03 678.058 665.349 691.957 679.359C676.282 694.691 658.091 712.276 643.157 728.215C641.063 730.18 641.504 730.45 639.318 730.578C638.46 729.843 637.689 729.188 636.868 728.411C640.267 735.869 645.147 742.518 646.549 750.943C649.023 765.804 647.939 783.794 647.945 799.114L648.074 907.773L648 939.895C647.988 944.799 647.829 953.935 648.429 958.674C649.58 991.181 648.931 1026.26 648.876 1058.9C611.409 1058.9 569.337 1057.97 532.33 1058.99L531.313 1058.95L498.267 1058.93L493.271 1058.93H462.894C465.564 1042.16 473.585 1029.61 490.515 1024.2C498.126 1021.77 505.033 1022.15 512.895 1022.24C503.337 1001.15 494.091 979.921 485.152 958.558L482.476 958.6C475.361 958.686 420.881 958.196 419.434 959.164L419.475 1058.94L232.607 1058.95C235.338 1041.97 243.774 1029.32 260.943 1024.14C268.598 1021.83 275.318 1022.15 283.201 1022.18C280.451 1016.82 277.595 1010.66 275.252 1005.14C261.077 971.667 244.587 938.156 233.32 903.628C229.847 900.56 224.317 896.825 220.522 893.751C212.166 886.985 203.977 880.348 196.467 872.621C189.656 866.191 184.23 859.964 178.188 852.892C171.481 848.502 144.616 805.537 140.435 795.305C131.906 780.708 125.665 757.091 119.765 741.52C119.23 737.81 116.688 728.258 115.782 724.082C115.13 721.951 114.625 719.912 114.081 717.75C112.724 713.275 111.085 701.414 110.369 696.289C105.255 659.637 106.691 622.531 106.825 585.701L106.471 456.306C126.553 455.723 147.35 456.007 167.483 456.023L262.112 456.051L307.936 456.039C312.77 456.032 327.592 455.749 331.792 456.436L332.337 456.426C333.081 442.398 332.457 423.303 332.454 408.715L332.52 324.198C332.46 321.955 332.529 321.176 332.813 318.939L333.015 318.162Z" fill="#D42C29"/>
<path d="M106.471 456.306C126.553 455.723 147.35 456.006 167.483 456.022L262.112 456.051L307.936 456.038C312.77 456.031 327.592 455.749 331.792 456.436L332.337 456.425L332.083 707.384L332.4 717.383C332.59 719.311 332.896 721.699 332.871 723.591C328.642 724.749 283.367 724.216 275.479 724.216L115.782 724.081C115.13 721.951 114.625 719.912 114.081 717.75C112.724 713.274 111.085 701.414 110.369 696.289C105.255 659.636 106.691 622.531 106.825 585.7L106.471 456.306Z" fill="#F3EDE0"/>
<path d="M331.792 456.436L332.337 456.425L332.083 707.384C331.042 705.774 331.522 662.373 331.532 656.703L181.596 656.667C159.753 656.661 137.838 656.593 115.991 656.734C113.172 656.752 110.047 657.389 107.678 655.797C107.571 653.495 107.398 652.748 108.124 650.519C111.163 649.791 123.591 650.084 127.698 650.097L167.348 650.17C221.589 650.256 277.37 650.807 331.483 649.962L331.558 587.635L178.732 587.593L129.741 587.568C126.493 587.568 109.755 588.187 107.801 587.084C107.401 584.409 107.39 584.47 107.786 581.806C109.344 580.851 123.047 581.292 126.031 581.292L172.922 581.304C225.395 581.31 279.417 580.594 331.761 581.384C331.6 560.584 331.543 539.778 331.593 518.972L178.229 518.917C156.365 518.91 134.319 518.763 112.451 519.045C110.682 519.07 108.922 518.941 107.593 517.747C107.526 515.61 107.358 514.673 108.019 512.61C112.719 511.879 124.777 512.241 130.236 512.253L171.232 512.3C224.398 512.274 278.53 512.855 331.61 512.193C332.054 493.979 331.697 474.787 331.792 456.436Z" fill="#D9CDBB"/>
<path d="M332.4 717.383C332.59 719.312 332.896 721.7 332.871 723.592C328.642 724.749 283.367 724.216 275.479 724.216L115.782 724.081C115.13 721.951 114.625 719.912 114.081 717.75L265.923 717.732L308.227 717.811C314.286 717.83 326.701 718.118 332.4 717.383Z" fill="#D9CDBB"/>
<path d="M576.44 702.057C602.653 701.236 619.632 708.639 636.868 728.411C640.267 735.868 645.147 742.518 646.549 750.943C649.023 765.804 647.939 783.794 647.945 799.113L648.074 907.773L648 939.894C647.988 944.799 647.829 953.935 648.429 958.674C649.58 991.181 648.931 1026.26 648.876 1058.9C611.409 1058.9 569.337 1057.97 532.33 1058.99L531.313 1058.94L498.267 1058.93L493.271 1058.93H462.894C465.564 1042.16 473.585 1029.61 490.515 1024.2C498.126 1021.77 505.033 1022.15 512.895 1022.24C503.337 1001.15 494.091 979.921 485.152 958.557C483.921 954.902 482.494 950.224 480.835 946.869C461.137 888.528 441.096 825.822 472.869 767.506C489.272 737.283 517.408 715.154 550.65 706.337C555.058 705.18 559.541 704.322 564.065 703.765C566.974 703.404 574.175 703.043 576.44 702.057Z" fill="#D42C29"/>
<path d="M535.14 1027.34C536.946 1027.58 538.771 1027.83 540.577 1028.05C538.416 1029.95 535.93 1032.13 534.301 1034.48C530.842 1039.5 524.162 1053.21 528.509 1058.53L531.313 1058.94L498.267 1058.93C499.62 1049.97 499.204 1043.97 505.498 1036.22C513.416 1026.47 524.039 1027.32 535.14 1027.34Z" fill="#D42C29"/>
<path d="M493.271 1058.93C489.897 1052.38 498.659 1033.96 504.476 1029.52C515.05 1021.46 522.569 1021.19 534.803 1022.14C535.759 1024.77 535.752 1024.61 535.14 1027.34C524.039 1027.32 513.416 1026.47 505.498 1036.22C499.204 1043.97 499.62 1049.97 498.267 1058.93L493.271 1058.93Z" fill="#711413"/>
<path d="M554.22 1022.33C558.751 1022.15 566.723 1020.96 569.625 1023.6C570.109 1025.66 570.28 1024.75 569.307 1026.45C562.259 1029.48 549.884 1025.28 541.508 1034.23C537.124 1038.91 538.361 1037.31 535.587 1042.88C533.328 1047.41 533.426 1057.18 532.33 1058.99L531.313 1058.94L528.509 1058.53C524.161 1053.21 530.842 1039.5 534.301 1034.48C535.93 1032.13 538.416 1029.95 540.577 1028.05C546.021 1024.61 547.821 1023.46 554.22 1022.33Z" fill="#711413"/>
<path d="M534.803 1022.14C540.816 1022.13 548.55 1022.55 554.22 1022.33C547.821 1023.46 546.021 1024.61 540.577 1028.05C538.771 1027.83 536.946 1027.58 535.14 1027.34C535.752 1024.61 535.759 1024.77 534.803 1022.14Z" fill="#A7201E"/>
<path d="M387.88 872.223C407.766 896.507 426.744 915.372 453.661 932.088C459.68 935.823 467.701 940.893 474.118 943.458L474.895 944.126L480.835 946.869C482.494 950.224 483.921 954.902 485.152 958.558L482.476 958.601C475.361 958.686 420.881 958.196 419.434 959.164L419.475 1058.94L232.607 1058.95C235.338 1041.97 243.774 1029.32 260.943 1024.14C268.598 1021.83 275.318 1022.15 283.201 1022.18C280.451 1016.82 277.595 1010.66 275.252 1005.14C261.077 971.667 244.587 938.156 233.32 903.628C229.847 900.56 224.317 896.825 220.522 893.751C212.167 886.985 203.977 880.348 196.467 872.621C210.71 872.376 225.94 873.074 240.047 872.253C278.1 873.521 316.862 871.855 355.002 872.559C365.609 872.755 377.344 872.866 387.88 872.223Z" fill="#A7201E"/>
<path d="M387.88 872.223C407.766 896.507 426.744 915.372 453.661 932.088C459.68 935.823 467.701 940.893 474.118 943.458L474.895 944.126L480.835 946.869C482.494 950.224 483.921 954.902 485.152 958.558L482.476 958.601C475.361 958.686 420.881 958.196 419.434 959.164C417.473 958.282 413.495 958.503 411.266 958.539C357.626 959.317 305.451 945.944 258.853 919.315C250.42 914.496 241.975 908.441 233.32 903.628C229.847 900.56 224.317 896.825 220.522 893.751C212.167 886.985 203.977 880.348 196.467 872.621C210.71 872.376 225.94 873.074 240.047 872.253C278.1 873.521 316.862 871.855 355.002 872.559C365.609 872.755 377.344 872.866 387.88 872.223Z" fill="#FBB92E"/>
<path d="M474.895 944.125L480.835 946.869C482.494 950.224 483.921 954.902 485.151 958.557L482.476 958.6C478.998 953.665 477.283 949.636 474.895 944.125Z" fill="#D99B22"/>
<path d="M319.093 1022.75C324.69 1022.25 333.891 1021.11 338.941 1022.94L339.938 1024.07C339.26 1029.17 331.304 1027.4 327.236 1027.44C317.714 1027.55 309.141 1033.24 305.332 1041.97C302.45 1048.4 303.406 1056.32 299.866 1059.32L298.709 1059.5C292.358 1053.64 301.959 1033.72 307.62 1029.71C307.195 1030.02 309.18 1028.29 308.907 1028.54C307.181 1027.88 305.462 1027.2 303.748 1026.51C303.577 1025.71 303.426 1023.51 303.336 1022.59C308.246 1022.24 314.267 1021.69 319.093 1022.75Z" fill="#711413"/>
<path d="M303.336 1022.59C308.246 1022.24 314.267 1021.69 319.093 1022.75C315.529 1024.44 312.933 1025.49 309.77 1027.9L308.907 1028.54C307.181 1027.88 305.462 1027.2 303.748 1026.51C303.577 1025.71 303.426 1023.51 303.336 1022.59Z" fill="#A7201E"/>
<path d="M263.322 1047.38C268.005 1026.38 283.673 1020.19 303.336 1022.59C303.426 1023.51 303.578 1025.71 303.748 1026.51C292.358 1030.23 280.728 1024.15 272.387 1039.11C270.37 1042.66 268.95 1046.52 268.184 1050.53C267.704 1054 268.026 1057.78 264.184 1058.83C260.672 1056.53 262.603 1050.72 263.322 1047.38Z" fill="#711413"/>
<path d="M115.782 724.082L275.479 724.216C283.367 724.216 328.642 724.749 332.871 723.592C333.318 729.109 333.684 735.066 334.395 740.522L334.971 744.606C329.101 754.997 297.714 753.099 289.892 786.482C287.872 794.901 287.994 803.693 290.248 812.051C290.571 813.221 290.485 812.896 291.02 814.115C293.112 813.539 305.198 801.238 307.662 798.838C308.644 805.781 309.395 809.333 311.15 816.038L312.039 816.491C313.753 815.86 324.94 803.755 328.065 800.944C328.487 804.594 331.074 814.433 330.971 815.621C332.23 816.742 331.489 816.466 333.095 816.729C337.019 813.852 344.34 801.226 348.904 801.71C358.906 828.884 370.847 849.071 387.88 872.223C377.344 872.866 365.609 872.755 355.002 872.559C316.862 871.855 278.1 873.521 240.047 872.253C225.94 873.074 210.71 872.376 196.467 872.621C189.656 866.191 184.23 859.964 178.188 852.892C171.481 848.502 144.616 805.537 140.435 795.305C131.906 780.708 125.665 757.091 119.765 741.52C119.23 737.81 116.688 728.258 115.782 724.082Z" fill="#F3EDE0"/>
<path d="M178.188 852.892C180.49 853.082 194.356 859.774 197.519 861.103C204.788 864.159 235.99 869.767 240.047 872.253C225.94 873.074 210.71 872.376 196.467 872.621C189.656 866.191 184.23 859.964 178.188 852.892Z" fill="#D9CDBB"/>
<path d="M371.208 447.238L510.47 447.228C520.579 480.572 533.113 506.331 554.422 533.93C552.125 536.655 549.67 539.221 547.08 541.688C531.625 556.561 517.928 572.187 499.541 583.607C470.242 601.798 439.562 601.229 406.503 600.88C415.329 592.718 424.15 583.068 432.905 574.673C460.941 547.799 488.335 517.955 516.41 491.37L371.246 491.397C370.752 477.488 371.124 461.262 371.208 447.238Z" fill="#222829"/>
<path d="M584.081 566.603L621.248 605.472C568.155 659.539 553.583 679.475 472.783 678.3C484.043 666.188 498.879 652.105 510.776 640.227L584.081 566.603Z" fill="#222829"/>
<path d="M371.145 355.995L502.437 356.058C502.437 370.438 502.143 386.469 502.645 400.719C488.06 401.153 472.25 400.859 457.549 400.857L371.09 400.949L371.145 355.995Z" fill="#222829"/>
<path d="M650.29 635.652C663.987 650.029 678.058 665.349 691.957 679.359C676.282 694.691 658.091 712.276 643.157 728.214C641.063 730.18 641.504 730.449 639.318 730.578C638.46 729.843 637.689 729.188 636.868 728.41C619.632 708.639 602.653 701.236 576.44 702.057C576.948 699.62 578.583 698.64 580.5 696.895C585.643 692.738 590.792 687.906 595.74 683.449C613.613 667.382 633.109 652.454 650.29 635.652Z" fill="#222829"/>
<path d="M474.118 943.458C471.613 937.849 469.232 930.067 467.321 924.103C458.198 895.594 450.532 864.832 450.324 834.768C450.073 797.166 463.531 761.377 490.093 734.589C513.96 710.421 546.529 696.84 580.5 696.895C578.583 698.64 576.948 699.62 576.44 702.057C574.174 703.043 566.974 703.404 564.065 703.765C559.54 704.322 555.058 705.18 550.65 706.337C517.408 715.154 489.272 737.283 472.869 767.506C441.096 825.822 461.137 888.528 480.835 946.869L474.895 944.125L474.118 943.458Z" fill="#A7201E"/>
<path d="M333.015 318.162L502.504 318.321L502.431 323.527C501.029 323.979 499.516 324.191 498.047 324.185C460.371 324.039 422.694 324.129 385.026 324.179L350.71 324.271C346.649 324.282 337.451 324.571 333.86 323.983C332.43 322.486 332.939 321.684 332.813 318.939L333.015 318.162Z" fill="#A7201E"/>
<path d="M350.809 796.548C374.793 787.914 391.304 773.519 402.233 749.994C406.357 740.981 409.194 731.435 410.66 721.632C412.321 710.843 411.99 700.618 412.243 689.786C412.27 688.611 412.942 687.582 413.746 686.774C415.824 686.443 414.833 686.333 416.813 687.215C418.637 691.121 417.718 696.148 417.795 700.336C418.542 740.816 399.338 781.558 360.98 798.495C357.207 800.16 353.142 801.697 348.904 801.709L350.809 796.548Z" fill="#711413"/>
<path d="M334.395 740.522C335.373 738.177 337.151 736.224 338.784 734.295C345.662 726.163 346.183 714.793 346.378 704.684C346.466 700.147 345.545 689.756 347.862 686.584C349.778 686.107 351.703 687.509 351.77 689.272C352.537 709.258 353.079 731.687 335.742 744.527L334.971 744.606L334.395 740.522Z" fill="#A7201E"/>
<path d="M311.151 816.037C312.542 811.641 322.541 795.88 327.739 796.572C328.715 798.685 328.358 798.244 328.065 800.944C324.94 803.755 313.753 815.86 312.039 816.491L311.151 816.037Z" fill="#A7201E"/>
<path d="M330.971 815.621C332.932 808.065 343.314 799.04 350.809 796.548L348.904 801.71C344.34 801.226 337.019 813.852 333.095 816.729C331.489 816.466 332.23 816.742 330.971 815.621Z" fill="#A7201E"/>
<path d="M291.02 814.115C291.98 809.033 302.771 793.235 308.027 795.452C308.369 797.191 308.248 797.124 307.662 798.838C305.198 801.238 293.112 813.54 291.02 814.115Z" fill="#A7201E"/>
<path d="M262.974 4.5992C277.451 3.73585 293.645 4.08976 308.316 4.08793L380.118 4.08548L599.432 4.06956L739.466 4.09711L778.844 4.0518C788.279 4.0322 799.184 3.7083 808.418 4.96046C825.348 7.42438 841.176 14.8412 853.9 26.2778C887.889 56.5967 883.064 91.4075 883.052 132.256L883.137 214.465C884.533 272.05 838.837 317.961 781.464 318.351C762.336 318.482 743.183 318.41 724.048 318.423L616.264 318.484L541.275 318.45C529.36 318.442 514.181 318.838 502.504 318.321L333.015 318.162L332.813 318.939C332.529 321.176 332.461 321.955 332.521 324.198L332.454 408.715C332.457 423.303 333.081 442.398 332.337 456.426L331.792 456.436C327.592 455.749 312.77 456.032 307.936 456.039L262.112 456.051L167.483 456.023C147.35 456.007 126.553 455.723 106.471 456.306C106.526 440.244 106.794 423.468 106.42 407.466C98.6195 407.401 84.2297 409.115 77.086 405.839C74.4127 404.614 73.4954 399.49 75.5001 396.897C84.8212 384.839 95.5311 373.434 105.719 362.012C92.644 361.343 79.5634 360.811 66.4784 360.416C61.7349 360.24 51.2933 360.128 47.0788 359.31C45.2357 358.941 43.5593 357.992 42.2936 356.602C40.6735 354.823 39.8603 352.453 40.0465 350.054C40.5639 343.572 53.8196 334.434 59.1014 330.113L90.3804 304.688C67.3712 300.323 43.296 298.715 20.3021 293.927C11.5161 292.097 9.42571 280.888 16.0931 276.479C23.1885 271.788 32.4857 267.558 40.1848 263.652L90.4508 238.292C68.0006 228.636 42.9433 221.535 20.1361 212.47C14.3309 210.163 6.40828 208.879 4.39993 202.046C2.98428 197.228 5.44083 192.679 9.96944 190.737C40.191 180.934 72.1214 170.572 102.675 162.32C88.0922 151.088 73.4122 139.983 58.636 129.007C49.5843 122.322 40.2026 115.811 31.6603 108.513C26.9866 104.519 29.0268 94.428 35.2588 93.7073C68.6105 89.8485 102.393 88.5811 135.927 86.5562C128.742 79.4161 87.753 38.5931 87.404 33.2275C87.2607 31.0177 87.9642 28.8887 89.4931 27.2649C90.8794 25.7929 92.4591 25.1347 94.4301 24.8953C104.413 23.6811 116.892 24.744 127.178 24.7489L198.235 24.7869C218.806 13.3729 239.143 5.66093 262.974 4.5992Z" fill="#FBB92E"/>
<path d="M262.974 4.5992C277.451 3.73585 293.645 4.08976 308.315 4.08793L380.118 4.08548L599.432 4.06956L739.466 4.09711L778.843 4.0518C788.279 4.0322 799.184 3.7083 808.418 4.96046C825.348 7.42438 841.176 14.8412 853.9 26.2778C887.889 56.5967 883.064 91.4075 883.052 132.256L883.137 214.465L882.831 214.63L882.941 205.15C843.086 205.848 800.85 205.172 760.854 205.174L528.313 205.197L411.726 205.22C395.836 205.217 366.202 206.147 351.638 204.416C334.959 202.378 319.055 196.194 305.381 186.427C284.343 171.496 272.109 151.031 267.807 125.813C266.223 124.143 266.15 124.713 263.007 124.511C263.358 112.907 262.928 98.4716 262.929 86.656L262.974 4.5992Z" fill="#D42C29"/>
<path d="M370.602 71.1633C380.705 69.4495 390.948 73.3186 397.395 81.2847C403.843 89.2508 405.493 100.074 401.712 109.6C397.931 119.125 389.306 125.87 379.15 127.245C363.807 129.322 349.633 118.714 347.3 103.407C344.967 88.1015 355.337 73.7515 370.602 71.1633Z" fill="#222829"/>
<path d="M760.315 81.8604C774.055 83.3078 775.188 92.7435 775.029 104.532C774.888 115.34 774.515 122.547 762.905 126.013C747.494 125.909 747.273 116.019 747.377 103.715C747.475 92.2193 747.175 84.7021 760.315 81.8604Z" fill="#222829"/>
<path d="M814.063 81.8721C827.338 83.8045 828.134 93.6002 827.908 104.942C827.681 116.001 827.167 122.813 815.349 126.097C800.323 125.167 800.678 115.196 800.678 103.347C800.678 91.5269 800.734 84.5656 814.063 81.8721Z" fill="#222829"/>
<path d="M135.927 86.556C128.742 79.4159 87.753 38.593 87.404 33.2273C87.2607 31.0175 87.9642 28.8885 89.4931 27.2647C90.8794 25.7927 92.4591 25.1345 94.4301 24.8951C104.413 23.6809 116.892 24.7439 127.178 24.7488L198.235 24.7867C189.444 30.7175 181.294 36.1584 173.26 43.1614C140.68 71.936 118.597 110.73 110.488 153.434C104.607 183.709 106.494 225.952 106.501 257.62L106.42 407.466C98.6195 407.401 84.2297 409.114 77.086 405.839C74.4127 404.613 73.4954 399.49 75.5001 396.897C84.8212 384.839 95.5311 373.434 105.719 362.012C92.644 361.343 79.5634 360.811 66.4784 360.415C61.7349 360.24 51.2933 360.128 47.0788 359.31C45.2357 358.94 43.5593 357.992 42.2936 356.602C40.6735 354.823 39.8603 352.453 40.0465 350.054C40.5639 343.572 53.8196 334.433 59.1014 330.112L90.3804 304.688C67.3712 300.323 43.296 298.715 20.3021 293.926C11.5161 292.097 9.42571 280.887 16.0931 276.479C23.1885 271.788 32.4857 267.558 40.1848 263.652L90.4508 238.292C68.0006 228.636 42.9433 221.535 20.1361 212.47C14.3309 210.163 6.40828 208.879 4.39993 202.046C2.98428 197.228 5.44083 192.679 9.96944 190.737C40.191 180.934 72.1214 170.572 102.675 162.32C88.0922 151.088 73.4122 139.983 58.636 129.007C49.5843 122.321 40.2026 115.811 31.6603 108.513C26.9866 104.519 29.0268 94.4278 35.2588 93.7071C68.6105 89.8484 102.393 88.5809 135.927 86.556Z" fill="#D42C29"/>
<path d="M263.007 124.51C266.15 124.713 266.223 124.143 267.807 125.813C272.109 151.031 284.343 171.495 305.381 186.427C319.055 196.193 334.959 202.378 351.639 204.415C366.202 206.146 395.836 205.217 411.726 205.219L528.313 205.197L760.854 205.174C800.85 205.172 843.087 205.848 882.941 205.15L882.831 214.63C879.268 215.579 843.595 215.195 837.827 215.195L716.578 215.214L662.677 215.246L653.578 215.251C635.913 215.167 618.248 215.178 600.583 215.285C597.62 215.145 593.683 215.239 590.639 215.23L537.149 215.251L527.854 215.231L474.106 215.245L464.811 215.235C446.883 215.04 428.652 215.215 410.7 215.221C393.822 214.889 376.718 215.655 359.879 214.998C324.038 213.599 288.262 194.112 270.642 162.378C265.88 153.803 258.128 135.361 258.668 125.644C260.345 124.262 260.324 124.717 263.007 124.51Z" fill="#222829"/>
<path d="M410.7 215.222C428.652 215.216 446.883 215.04 464.811 215.235C457.237 226.12 450.991 238.961 443.894 250.231C441.984 253.269 441.035 255.878 437.244 256.437C433.002 254.761 428.382 245.168 425.958 241.067L410.7 215.222Z" fill="#F7F7F7"/>
<path d="M662.677 215.246L716.578 215.214C709.353 225.72 703.126 238.044 696.348 248.895C694.278 252.201 692.888 256.33 688.676 256.653C684.751 254.6 680.538 245.512 678.12 241.355C673.056 232.603 667.912 223.899 662.677 215.246Z" fill="#F7F7F7"/>
<path d="M600.583 215.285C618.248 215.179 635.913 215.168 653.578 215.251C649.837 221.634 630.837 256.329 626.11 257.39C623.636 255.524 602.108 219.281 600.583 215.285Z" fill="#F7F7F7"/>
<path d="M474.106 215.246L527.854 215.231C520.328 225.829 511.199 244.827 502.792 255.533C501.965 256.59 500.6 256.297 499.48 256.116C495.236 253.109 478.171 222.111 474.106 215.246Z" fill="#F7F7F7"/>
<path d="M537.149 215.251L590.639 215.23C583.169 227.048 574.383 243.697 566.178 255.293C565.345 256.466 563.931 256.432 562.743 256.406C558.2 253.706 541.098 221.914 537.149 215.251Z" fill="#F7F7F7"/>
<path d="M332.52 324.198C321.463 324.239 310.748 324.194 299.311 324.143C253.622 323.939 212.423 290.498 209.666 243.748C209.583 242.35 210.744 241.603 211.707 240.982C216.553 241.707 215.954 251.697 217.069 255.873C225.803 288.606 252.801 312.458 286.444 316.786C302.191 318.811 317.249 317.655 333.015 318.162L332.813 318.939C332.529 321.176 332.46 321.955 332.52 324.198Z" fill="#D99B22"/>
<path d="M691.957 679.359C701.35 689.511 711.27 699.1 720.662 709.209C722.224 710.85 724.538 713.14 725.867 714.86C742.209 732.189 764.228 756.76 782.989 770.733L788.414 774.744C806.214 786.298 819.513 793.664 840.405 800.099L845.346 801.508C891.893 814.746 941.747 809.578 984.59 787.082C976.091 842.599 947.313 888.363 902.18 921.495C900.619 922.652 899.039 923.791 897.447 924.905L891.997 928.365C877.449 937.556 861.811 944.885 845.444 950.194L839.939 951.688C823.542 956.066 805.375 959.005 788.408 958.613L782.438 958.631L725.806 958.637L719.646 958.631L653.921 958.649L648.429 958.674C647.829 953.935 647.988 944.799 648 939.895L648.074 907.773L647.945 799.113C647.939 783.794 649.023 765.804 646.549 750.943C645.147 742.518 640.267 735.868 636.868 728.411C637.689 729.188 638.46 729.843 639.318 730.578C641.504 730.45 641.063 730.18 643.157 728.215C658.091 712.276 676.282 694.691 691.957 679.359Z" fill="#D42C29"/>
<path d="M691.957 679.359C701.35 689.511 711.27 699.1 720.662 709.209C722.224 710.85 724.538 713.14 725.867 714.86L725.885 874.494C725.891 901.889 726.424 931.371 725.806 958.637L719.646 958.631L653.921 958.649L648.429 958.674C647.829 953.935 647.988 944.799 648 939.895L648.074 907.773L647.945 799.113C647.939 783.794 649.023 765.804 646.549 750.943C645.147 742.518 640.267 735.868 636.868 728.411C637.689 729.188 638.46 729.843 639.318 730.578C641.504 730.45 641.063 730.18 643.157 728.215C658.091 712.276 676.282 694.691 691.957 679.359Z" fill="#D42C29"/>
<path d="M719.646 958.631C718.948 949.814 719.517 933.226 719.517 923.919L719.505 854.417L719.536 758.297C719.529 743.7 719.45 729.029 719.413 714.425C719.407 712.154 719.499 711.082 720.662 709.208C722.224 710.849 724.538 713.139 725.867 714.86L725.885 874.494C725.891 901.889 726.424 931.371 725.806 958.637L719.646 958.631Z" fill="#A7201E"/>
<path d="M636.868 728.411C637.689 729.188 638.46 729.844 639.318 730.578C641.504 730.45 641.063 730.18 643.157 728.215C648.288 735.765 651.6 744.392 652.843 753.436C654.148 762.773 653.915 774.211 653.897 783.757L653.805 824.775L653.921 958.65L648.429 958.674C647.829 953.935 647.988 944.799 648 939.895L648.074 907.773L647.945 799.114C647.939 783.794 649.023 765.804 646.549 750.944C645.147 742.518 640.267 735.869 636.868 728.411Z" fill="#A7201E"/>
<path d="M845.346 801.507C891.893 814.745 941.747 809.578 984.59 787.082C976.091 842.599 947.313 888.363 902.18 921.495C900.618 922.652 899.039 923.791 897.447 924.905L891.997 928.365C877.449 937.555 861.811 944.885 845.444 950.193L845.346 801.507Z" fill="#D42C29"/>
<path d="M891.997 928.365C891.238 925.897 891.024 811.635 891.618 809.731C893.032 808.959 896.045 808.978 897.33 810C898.133 817.421 897.447 836.574 897.459 845.049L897.447 924.905L891.997 928.365Z" fill="#A7201E"/>
<path d="M788.414 774.744C806.213 786.298 819.513 793.664 840.404 800.099L845.346 801.507L845.444 950.193L839.939 951.687C823.542 956.065 805.375 959.005 788.408 958.613C789.32 940.348 788.506 915.335 788.499 896.237L788.414 774.744Z" fill="#D42C29"/>
<path d="M840.405 800.099L845.346 801.507L845.444 950.193L839.939 951.687C838.947 948.124 839.309 937.984 839.302 933.924L839.278 901.117C839.26 869.13 839.223 837.033 839.321 805.04C839.333 802.499 839.082 801.758 840.405 800.099Z" fill="#A7201E"/>
<path d="M782.989 770.733L788.414 774.744L788.5 896.237C788.506 915.335 789.32 940.347 788.408 958.613L782.438 958.631C781.972 952.496 782.309 939.919 782.309 933.428L782.315 885.76L782.321 813.478C782.315 808.09 781.715 773.715 782.989 770.733Z" fill="#A7201E"/>
<path d="M119.765 741.52C125.665 757.091 131.906 780.707 140.435 795.305C127.093 800.534 122.885 806.498 114.336 817.703C112.082 812.266 110.379 806.92 109.98 800.987C104.258 805.702 99.2661 811.182 94.1209 816.527C92.423 815.891 93.2202 816.38 92.1309 814.029C90.6773 808.886 90.1495 804.636 89.7282 799.352C85.5021 803.063 81.2955 806.792 77.1092 810.539C76.6077 811.219 73.6148 814.133 72.85 814.911C65.9383 793.413 72.4165 769.447 92.7903 757.856C103.045 752.027 111.249 752.456 119.223 742.224L119.765 741.52Z" fill="#D42C29"/>
<path d="M92.1309 814.029C95.354 809.903 103.485 794.638 109.2 795.979C110.34 797.577 110.029 798.961 109.98 800.987C104.258 805.702 99.266 811.182 94.1208 816.528C92.4229 815.891 93.2201 816.381 92.1309 814.029Z" fill="#A7201E"/>
<path d="M77.1092 810.539C74.4622 805.769 85.2021 796.113 89.1257 795.789C90.1807 797.191 89.7907 797.129 89.7282 799.352C85.5021 803.063 81.2956 806.792 77.1092 810.539Z" fill="#A7201E"/>
</svg>
